<svg width="385" height="674" viewBox="0 0 385 674" fill="none" xmlns="http://www.w3.org/2000/svg">
<path d="M380.89 656.798H254.451V445.838H380.89V656.798Z" fill="#B2B2B2"/>
<path d="M254.951 656.798H128.512V445.838H254.951V656.798Z" fill="#D1D1D1"/>
<path d="M243.584 246.352L228.356 319.173L275.918 325.289C275.918 325.289 280.042 249.614 275.918 249.206C271.795 248.839 243.584 246.352 243.584 246.352Z" fill="#A8754B"/>
<path d="M288.085 173.205C288.085 173.205 240.563 179.892 232.03 252.102C232.03 252.102 247.177 268.37 266.488 263.355L288.085 173.205Z" fill="#F12D2D"/>
<path d="M308.71 170.718C308.71 170.718 355.007 166.151 371.296 198.729C387.627 231.307 340.023 265.23 356.354 339.886L253.717 334.463V268.614C253.717 268.614 235.018 241.378 261.514 212.184C261.514 212.184 263.107 167.823 308.71 170.718Z" fill="#F12D2D"/>
<path d="M156.014 350.446C156.014 350.446 122.742 338.133 113.8 370.384C104.86 402.595 67.789 613.187 67.789 613.187H97.5105L114.984 529.48C114.984 529.48 139.643 502.039 147.196 443.775L250.895 431.42L156.014 350.446Z" fill="#D19969"/>
<path d="M224.04 427.506C224.04 427.506 206.403 427.017 175.089 417.068C143.776 407.079 121.444 417.639 133.773 452.867C146.103 488.054 208.404 651.147 208.404 651.147L232.001 644.093L211.629 538.49C211.629 538.49 206.852 486.097 184.724 455.395C184.724 455.395 231.266 457.719 247.188 455.272C263.029 452.867 224.04 427.506 224.04 427.506Z" fill="#A8754B"/>
<path d="M356.351 339.886C356.351 339.886 393.993 387.142 348.717 433.54C348.717 433.54 325.405 460.654 222.645 456.414C222.645 456.414 195.7 365.573 138.38 341.15L257.021 325.29L356.351 339.886Z" fill="#3F52E3"/>
<path d="M306.17 50.0703C306.17 50.0703 293.923 0.286241 336.341 0.000828375C367.736 -0.203038 377.086 37.2674 338.586 62.343L306.17 50.0703Z" fill="#190D08"/>
<path d="M340.014 71.3951C340.014 71.3951 347.689 51.824 325.806 41.9161C303.923 32.0081 296.942 55.4528 296.942 55.4528L340.014 71.3951Z" fill="#FD6C75"/>
<path d="M256.893 115.919C256.893 115.919 225.294 97.2444 259.465 59.7331C280.817 36.2886 318.214 37.5932 339.036 60.8339C359.857 84.0747 340.22 125.052 340.22 125.052L326.053 101.526L313.642 83.2592L295.882 76.1647L281.961 77.1432L270.162 78.6518L260.649 82.6476L256.893 115.919Z" fill="#27160C"/>
<path d="M282.696 131.008L318.21 126.453L325.398 182.345L289.884 186.9L282.696 131.008Z" fill="#B5845B"/>
<path d="M321.926 143.074C321.926 143.074 318.089 163.42 301.717 167.538C296.614 168.802 291.062 167.334 287.959 163.135C287.101 161.993 286.489 160.688 286.285 159.221C285.509 153.349 301.023 143.074 301.023 143.074H321.926Z" fill="#D19969"/>
<path d="M296.909 157.549L298.747 157.304C319.119 154.695 333.531 136.061 330.918 115.716L328.836 99.5694C326.223 79.2235 307.565 64.8306 287.193 67.4401L285.356 67.6847C264.983 70.2942 250.572 88.9276 253.185 109.273L255.267 125.42C257.88 145.765 276.537 160.158 296.909 157.549Z" fill="#D19969"/>
<path d="M326.916 111.679C326.916 111.679 301.359 103.361 302.012 74.6973C302.012 74.6973 300.379 53.3321 322.752 73.1071C345.124 92.8821 326.916 111.679 326.916 111.679Z" fill="#27160C"/>
<path d="M321.276 119.507C322.174 126.357 328.421 131.209 335.32 130.312C342.179 129.415 347.038 123.177 346.139 116.327C345.241 109.477 338.995 104.625 332.095 105.522C325.236 106.378 320.378 112.657 321.276 119.507Z" fill="#B5845B"/>
<path d="M313.07 97.326L314.213 106.378C316.826 119.14 322.215 115.266 324.175 109.762L313.07 97.326Z" fill="#27160C"/>
<path d="M249.255 92.7195C249.255 92.7195 275.343 112.25 313.597 83.3009C339.97 63.3628 300.083 56.1867 300.083 56.1867L262.891 63.8521L249.255 92.7195Z" fill="#27160C"/>
<path d="M325.355 182.297C325.355 182.297 303.023 222.092 287.182 209.86C270.076 196.65 308.698 170.718 308.698 170.718L325.355 182.297Z" fill="#D19969"/>
<path d="M315.484 263.355C315.484 263.355 301.684 288.757 292.254 308.695L191.658 302.905C191.658 302.905 171.694 286.596 156.057 300.377L171.49 318.888L297.439 346.736C302.256 347.797 307.278 346.41 310.83 343.067C321.975 332.547 346.226 308.043 357.984 283.049L315.484 263.355Z" fill="#D19969"/>
<path d="M36.2646 224.172H159.886C163.969 224.172 167.48 227.026 168.297 230.981L191.568 340.049C192.711 345.39 188.628 350.446 183.157 350.446H57.4534C53.3299 350.446 49.778 347.511 49.0023 343.474L27.7727 234.406C26.7929 229.105 30.8755 224.172 36.2646 224.172Z" fill="#B2B2B2"/>
<path d="M29.1678 224.172H152.79C156.872 224.172 160.383 227.026 161.2 230.981L184.471 340.049C185.614 345.39 181.531 350.446 176.061 350.446H50.3566C46.2331 350.446 42.6813 347.511 41.9056 343.474L20.6759 234.406C19.6961 229.105 23.7379 224.172 29.1678 224.172Z" fill="#D1D1D1"/>
<path d="M188.308 341.15H272.778C275.35 341.15 277.432 343.23 277.432 345.798C277.432 348.367 275.35 350.446 272.778 350.446H186.675L188.308 341.15Z" fill="#B2B2B2"/>
<path d="M105.723 284.475C105.723 291.896 99.6804 297.93 92.25 297.93C84.8196 297.93 78.7773 291.896 78.7773 284.475C78.7773 277.055 84.8196 271.02 92.25 271.02C99.6804 271.02 105.723 277.014 105.723 284.475Z" fill="white"/>
<path d="M357.984 182.868C359.658 183.602 415.059 210.798 360.556 295.076C360.556 295.076 325.731 295.647 305.563 269.756C305.522 269.756 312.218 162.808 357.984 182.868Z" fill="#F12D2D"/>
<path d="M238.404 639.486C237.669 637.284 235.26 636.469 233.627 637.896C230.443 640.709 224.727 644.179 216.317 643.323C207.539 642.466 204.273 637.284 203.007 633.574C202.354 631.617 200.476 630.638 198.802 631.454L145.647 658.119C142.421 659.75 139.89 662.767 138.665 666.519C137.481 670.066 139.849 673.862 143.197 673.78L235.015 671.248C238.649 671.167 241.384 667.619 241.098 663.501L239.588 643.278C239.547 642.952 239.506 642.629 239.384 642.303L238.404 639.486Z" fill="#FD6C75"/>
<path d="M104.379 604.584C104.216 602.26 102.134 600.833 100.215 601.811C96.4179 603.687 90.0082 605.522 82.0879 602.505C73.8819 599.365 72.0447 593.534 71.7997 589.62C71.6772 587.582 70.1258 586.114 68.2887 586.481L9.98882 598.346C6.43694 599.08 3.21168 601.322 1.00706 604.625C-1.07507 607.724 0.231354 612.005 3.45663 612.779L92.7436 634.348C96.2546 635.205 99.8473 632.514 100.623 628.436L104.461 608.539C104.542 608.213 104.542 607.887 104.542 607.52L104.379 604.584Z" fill="#FD6C75"/>
</svg>
