<svg width="788" height="704" viewBox="0 0 788 704" fill="none" xmlns="http://www.w3.org/2000/svg">
<g opacity="0.15">
<path d="M467.873 50.459C420.649 14.9167 362.013 -2.03875 303.107 2.81452C244.201 7.6678 189.131 33.9916 148.36 76.784C107.589 119.576 83.9594 175.855 81.9604 234.927C79.9613 293.998 99.7325 351.746 137.517 397.196C149.598 412.256 206.522 486.752 206.522 553.561H437.922C437.922 497.121 478.521 435.226 498.42 408.254" stroke="#F6F6F6" stroke-width="3" stroke-miterlimit="10"/>
<path d="M211.641 592.261H432.803" stroke="#F6F6F6" stroke-width="3" stroke-miterlimit="10"/>
<path d="M232.08 631.036H412.364" stroke="#F6F6F6" stroke-width="3" stroke-miterlimit="10"/>
<path d="M380.943 669.829C374.644 679.691 365.963 687.808 355.7 693.43C345.438 699.053 333.924 702 322.222 702C310.52 702 299.007 699.053 288.744 693.43C278.482 687.808 269.801 679.691 263.502 669.829H380.943Z" fill="#F6F6F6" stroke="#0D0D0D" stroke-width="3" stroke-miterlimit="10"/>
<path d="M81.8028 243.066C81.8028 243.066 33.9628 277.504 24.3762 294.76" stroke="#F6F6F6" stroke-width="3" stroke-miterlimit="10"/>
<path d="M7.82779 323.464C7.82779 323.464 -20.2991 371.62 47.0306 362.443" stroke="#F6F6F6" stroke-width="3" stroke-miterlimit="10"/>
<path d="M92.3944 359.13C92.3944 359.13 112.871 362.499 174.467 343.009" stroke="#F6F6F6" stroke-width="3" stroke-miterlimit="10"/>
<path d="M217.282 330.723C220.167 329.755 257.862 321.285 290.103 307.585" stroke="#F6F6F6" stroke-width="3" stroke-miterlimit="10"/>
<path d="M332.824 290.702C332.824 290.702 387.067 272.831 408.269 264.864" stroke="#F6F6F6" stroke-width="3" stroke-miterlimit="10"/>
<path d="M432.803 157.215L782.91 63.8989L595.85 251.294L558.36 229.999L492.221 277.243L498.867 190.945L432.803 157.215Z" fill="#F6F6F6" stroke="#0D0D0D" stroke-width="3" stroke-miterlimit="10"/>
<path d="M498.867 190.945L782.91 63.8989L531.257 214.12L492.221 277.243L498.867 190.945Z" fill="#0D0D0D" stroke="#0D0D0D" stroke-width="3" stroke-miterlimit="10"/>
</g>
</svg>
