<svg xmlns="http://www.w3.org/2000/svg" viewBox="0 0 104.25 299.6"><defs><style>.cls-1{isolation:isolate;}.cls-2{fill:#e1ecf8;}.cls-3{fill:#fe7d90;}.cls-4{fill:#f4b5c7;}.cls-5{fill:#f9c4d1;}.cls-6{fill:#e588a7;}.cls-7{fill:#8e5169;}.cls-8{fill:#fff;}.cls-9{fill:#f9afc7;}.cls-10{fill:#3e89cc;}.cls-11{fill:#1979bf;}.cls-12{fill:#57c6f2;}.cls-13,.cls-14{fill:#3bacea;}.cls-14{opacity:0.49;}.cls-15{opacity:0.4;mix-blend-mode:multiply;}.cls-16{fill:#ffd5b6;}.cls-17{fill:#db5676;}.cls-18{opacity:0.43;}</style></defs><g class="cls-1"><g id="Layer_2" data-name="Layer 2"><g id="OBJECTS"><path class="cls-2" d="M104.25,293.75c0,3.23-23.34,5.85-52.12,5.85S0,297,0,293.75s23.34-5.85,52.13-5.85S104.25,290.52,104.25,293.75Z"/><path class="cls-3" d="M39.07,24c.23,2.64,1.08,5.19,1.44,7.81s.17,5.5-1.43,7.61a8.38,8.38,0,0,1-4.54,2.88,17.42,17.42,0,0,1-5.44.46,4.71,4.71,0,0,0,.06-3.41c-1.27-4.82-3.73-9.25-5.13-14-.69-2.36-1.35-6.12-.79-8.52a11.9,11.9,0,0,1,5.67-7.93"/><path class="cls-4" d="M45.09,39.4c.6,2.05-.17,7.28-1.3,9.09.68,2.4,1.26,4.16,5,3.1s8.79-4.11,10.49-8.46c-2.27-3-6.62-13.37-6.54-15.25"/><path class="cls-5" d="M29,17.78C27.4,21.17,29.56,27,31.36,30c1.24,2.09,1.84,4.5,2.8,6.73s2.46,4.42,4.73,5.29a8.56,8.56,0,0,0,6-.35,16.26,16.26,0,0,0,7.89-24,20,20,0,0,0-3.41-3.93c-3.32-3-7.69-5.15-12.15-4.76s-8.77,3.88-9.08,8.34"/><path class="cls-3" d="M53.33,4.37A16.24,16.24,0,0,0,45.66.29a15.38,15.38,0,0,0-9.79,1.32,20.16,20.16,0,0,0-6,4.8,14.68,14.68,0,0,0-1.53,2.46l-.1,0c-.15.27-.3.56-.46.9a4.57,4.57,0,0,0-.54,2.21A13.19,13.19,0,0,0,27,14.58c0,3.91,4.74,4.93,7.8,5.19,1.14.1,2.28.2,3.43.19.86,0,1.72-.06,2.58,0a10,10,0,0,1,5.94,2.44A10.56,10.56,0,0,1,50,27.91a9.85,9.85,0,0,0,.21-6.12,27.1,27.1,0,0,1,3.44,8.43,11.61,11.61,0,0,1,.42,3.93c0,.43-.54,4.09-1,4.1A11,11,0,0,0,62,32.94C67.83,23.48,60.42,10.84,53.33,4.37Z"/><path class="cls-5" d="M50.78,24.85c-.29-.1-.17-.53,0-.78a5.84,5.84,0,0,1,1.14-1.42,2,2,0,0,1,1.69-.47,2.32,2.32,0,0,1,1.29,1.08A5.8,5.8,0,0,1,55.13,29a2.94,2.94,0,0,1-1.78,1.56,1.49,1.49,0,0,1-1.82-1.14"/><path class="cls-6" d="M39.14,29.81c0,.37-.29.57-.53.82a2.16,2.16,0,0,0-.55.84,1.22,1.22,0,0,0,.31,1.16,1.69,1.69,0,0,0,.55.41,1.27,1.27,0,0,0,.72.1.17.17,0,0,0,.08-.31,2,2,0,0,0-.26-.18c-.1-.06-.21-.1-.31-.15a1.26,1.26,0,0,1-.43-.29.7.7,0,0,1-.13-.84c.14-.27.34-.49.47-.76a1.34,1.34,0,0,0,.19-.8c0-.08-.11-.08-.11,0Z"/><path class="cls-6" d="M43.12,35.86a9.8,9.8,0,0,0-.95-.87,2.73,2.73,0,0,0-1.28-.5,1.52,1.52,0,0,0-1.23.51,1.9,1.9,0,0,0-.4.61,1.45,1.45,0,0,0-.09.74.19.19,0,0,0,.36.1,4.13,4.13,0,0,0,.32-.49,4,4,0,0,1,.27-.5.94.94,0,0,1,.9-.39,4,4,0,0,1,1.06.37A5.3,5.3,0,0,1,43,36c.06,0,.14-.06.08-.11Z"/><path class="cls-7" d="M31.9,26.82c.24-.81.87-1.17,1.87,0,.63.74,1.26,2.39.12,3C32.15,30.7,31.51,28.15,31.9,26.82Z"/><path class="cls-8" d="M32,27.65c.11-.36.39-.52.83,0,.28.33.56,1.07,0,1.32C32.13,29.37,31.85,28.24,32,27.65Z"/><path class="cls-7" d="M34.83,22.65a3.26,3.26,0,0,1-1.49,0,4.66,4.66,0,0,0-1.29-.17,2.47,2.47,0,0,0-1.28.53,1.72,1.72,0,0,0-.41.44c-.1.15-.24.42-.17.59s.14.16.23.1a1.36,1.36,0,0,0,.32-.46,1.64,1.64,0,0,1,.41-.42,1.93,1.93,0,0,1,1.23-.35c.85.07,1.79.49,2.53-.13.06-.05,0-.14-.08-.12Z"/><path class="cls-7" d="M43.21,23.26c.29-.87,1-1.26,2.09,0,.69.78,1.35,2.52.07,3.16C43.42,27.38,42.75,24.68,43.21,23.26Z"/><path class="cls-8" d="M43.33,24.14c.13-.39.44-.56.93,0,.3.34.6,1.12,0,1.4C43.42,26,43.13,24.76,43.33,24.14Z"/><path class="cls-7" d="M40.21,21.42a5.36,5.36,0,0,0,1.6-.06c.56-.13,1.09-.34,1.66-.43a5.51,5.51,0,0,1,1.72,0c.55.09,1,.37,1.54.51a.16.16,0,0,0,.15-.27,2.34,2.34,0,0,0-1.4-.69,5.42,5.42,0,0,0-1.75-.06,8.38,8.38,0,0,0-1.71.42,6.92,6.92,0,0,1-1.81.3.14.14,0,0,0,0,.28Z"/><path class="cls-9" d="M42.56,31.34a1.73,1.73,0,0,1,.27-1.78,4.78,4.78,0,0,1,3.75-1.83,1.86,1.86,0,0,1,1.59.72,2,2,0,0,1,.29,1.07,3.3,3.3,0,0,1-2.21,3.11C45,33,43.13,32.59,42.56,31.34Z"/><path class="cls-9" d="M33.31,33.23a1.56,1.56,0,0,1,.07-1.36,2.33,2.33,0,0,1,2.22-1.21,1.28,1.28,0,0,1,1,.64,2,2,0,0,1,.24.84,2.14,2.14,0,0,1-1.2,2.29A2.12,2.12,0,0,1,33.31,33.23Z"/><path class="cls-10" d="M43.79,48.49s2,9.25,15.45-5.36c0,0,15.81,31.95,18.76,57.83a179.19,179.19,0,0,1,3.46,23.18,3.45,3.45,0,0,1-2.55,3.59c-7,1.92-27.07,6.37-47.51,1.88a3.18,3.18,0,0,1-2.5-3.52c2.24-17.18,3.76-28.76,3.76-29.82s-2.89-1.78-2.95-9.3,5-19.1,5-19.1Z"/><path class="cls-10" d="M43.79,48.49s-9.15,2.32-12.46,9.19c-1.9,3.94-8.22,33.48-9.14,36.25,1.48,3.88,9.32,5.36,12.33,2.41S43.79,48.49,43.79,48.49Z"/><path class="cls-11" d="M28.9,126.09l.79-7.45.86-7.43c.56-4.95,1.28-9.94,1.74-14.84.06-.34-.49-.83-.85-1.35a8.06,8.06,0,0,1-1-1.68,12.49,12.49,0,0,1-.94-3.72,23.83,23.83,0,0,1,.39-7.54A67.52,67.52,0,0,1,34.7,67.87q-1.38,3.5-2.44,7.08a58.66,58.66,0,0,0-1.78,7.23,24.58,24.58,0,0,0-.28,7.36,12.27,12.27,0,0,0,.91,3.51A7.26,7.26,0,0,0,32,94.59l.58.73a2.34,2.34,0,0,1,.3.45,1.28,1.28,0,0,1,.13.62c-.24,2.55-.59,5-.91,7.47s-.64,5-1,7.42L30,118.69Z"/><path class="cls-10" d="M59.24,43.13s14.41,4.58,18.38,8.78c5.93,6.28,12.95,32.78,14.25,35.74-3.15,3.7-15.34,8.32-22.55,7.76C68,88.39,59.24,56.6,59.24,56.6Z"/><path class="cls-11" d="M64.12,70.65c.42,2,.83,4.1,1.2,6.16s.75,4.12,1.08,6.19.7,4.13,1,6.2l.93,6.21L68,95.15a35,35,0,0,0,4.8,0,28.63,28.63,0,0,0,4.78-.66,21.37,21.37,0,0,1-2.34.65c-.8.16-1.6.31-2.4.4a35.94,35.94,0,0,1-4.87.23h-.25l0-.25-1-6.2c-.35-2.06-.63-4.14-1-6.21s-.6-4.14-.87-6.22S64.34,72.73,64.12,70.65Z"/><path class="cls-5" d="M76.12,277.27s1.81,8.41,1.32,9.22c-1.09,1.82-3.78,3.34-5.58,4.46a16.27,16.27,0,0,0-4.92,4.75,107.65,107.65,0,0,0,13.47-1.84,6.06,6.06,0,0,0,2.92-1.08c.94-.67,1.09-.92.4-2.94-.8-2.33-.92-1.82-1.2-4.13-.25-2-.15-8-.15-8"/><path class="cls-3" d="M73.8,289.72a63.23,63.23,0,0,1-6.52,3,4.75,4.75,0,0,0-1.68.92,1.6,1.6,0,0,0-.45,1.76,2.13,2.13,0,0,0,1.57,1,9.82,9.82,0,0,0,1.43.19,21.33,21.33,0,0,0,2.26-.07l7.4-.53a17.28,17.28,0,0,0,5.73-1.07,1.68,1.68,0,0,0,.64-.43,1.39,1.39,0,0,0,.28-.7c.13-.8.07-3.33-.55-3.93-.26,0-.88.49-1.11.63a5.34,5.34,0,0,1-2.13.6,15.23,15.23,0,0,1-4.15.19,4.18,4.18,0,0,1-1.35-.38,2.9,2.9,0,0,1-.91-.72"/><path class="cls-5" d="M27.32,274.07s.71,8.57.12,9.31c-1.32,1.66-4.18,2.83-6.11,3.7a16.23,16.23,0,0,0-5.49,4.08,112.05,112.05,0,0,0,13.59-.08,6.21,6.21,0,0,0,3-.7c1-.55,1.2-.77.77-2.87-.49-2.41-.67-1.92-.65-4.25,0-2,.88-8,.88-8"/><path class="cls-3" d="M23.41,286.11a61.18,61.18,0,0,1-6.85,2.17,5.07,5.07,0,0,0-1.79.7,1.61,1.61,0,0,0-.67,1.68,2.09,2.09,0,0,0,1.43,1.16,9.83,9.83,0,0,0,1.39.37,19.23,19.23,0,0,0,2.26.23l7.41.43a17.21,17.21,0,0,0,5.82-.33,1.7,1.7,0,0,0,.69-.33,1.61,1.61,0,0,0,.36-.67c.24-.77.5-3.29,0-4a4.08,4.08,0,0,0-1.18.48,5.21,5.21,0,0,1-2.19.32,15.1,15.1,0,0,1-4.14-.35,4.11,4.11,0,0,1-1.29-.56,2.75,2.75,0,0,1-.81-.82"/><path class="cls-12" d="M37.62,123.44c-13,27.6-15.21,59.92-16,83.64-.93,28.82,4.8,50.1,5.59,75.55l5.81.88C36.2,264.36,48.13,241.36,45,222.22a68.3,68.3,0,0,1-1.08-10.38c-.1-8.17,23.13-47.2,18.49-84.5"/><path class="cls-12" d="M49.77,121.83c-1.87,21.08,6.9,71.67,10.34,91.2,4.5,25.49,9.77,45,16.84,72.48h5.88c.26-19.4,5.61-43.59-.38-62a49.71,49.71,0,0,1-2.62-10.1,40.61,40.61,0,0,1,.54-9.9c2.75-19.35,8.21-33.36,6.46-49.12A59.25,59.25,0,0,0,77,126.89"/><path class="cls-13" d="M52,160.61q.76,8.43,2,16.79c.09.57.16,1.13.26,1.7a4,4,0,0,0,.09.48,1.24,1.24,0,0,0,.1.2c.11.2,0,.13,0-.14.06.49.84.49.78,0,0,.11,0,.28,0,.05a.19.19,0,0,1,0-.08,2.78,2.78,0,0,0,0-.5c0-.47-.11-.93-.16-1.4-.18-1.55-.35-3.1-.56-4.64-.47-3.4-.94-6.8-1.54-10.19l-.41-2.34c0-.31-.57-.24-.54.07Z"/><path class="cls-14" d="M26.8,157.08l60.13-1.81a7.39,7.39,0,0,0-.1-.92,65.85,65.85,0,0,0-1.31-7.69H29.26C28.33,150.12,27.52,153.61,26.8,157.08Z"/><path class="cls-4" d="M18,97.9a17.48,17.48,0,0,1-1.29,2.62C10,107.69,5.21,103,5.08,103l4-13.3c.15,0,2.86,0,3,.09,3.53,1.62,3.09,4.62,3.64,5.73A9,9,0,0,0,18,97.9Z"/><g class="cls-15"><path class="cls-16" d="M7.55,89.41a.32.32,0,0,1-.14,0,2.05,2.05,0,0,1,.23.2h0a1.48,1.48,0,0,1,.21.32c.44.86,3.87,3.43,2.63,3.93a16.86,16.86,0,0,1-4.11-1.52,2.58,2.58,0,0,1-.83-1.42,2.68,2.68,0,0,1,.09-1.67,1.41,1.41,0,0,1,.65-.67,1.94,1.94,0,0,1,.86-.19,7.22,7.22,0,0,1,1.57.39l.4.1a1.94,1.94,0,0,1-1,.53,1.66,1.66,0,0,1-.32,0H7.55Z"/></g><path class="cls-4" d="M12.12,89.51c-.24,1-1.35,1.95-1.43,2.3a12.22,12.22,0,0,0-.27,1.49,5.19,5.19,0,0,1,0,.89s0,0,0,0a3.65,3.65,0,0,0-.81-.63,8.28,8.28,0,0,0-.9-.6,8.92,8.92,0,0,1-1.89-1A2.64,2.64,0,0,1,6,90.61a2.68,2.68,0,0,1,.09-1.67,1.41,1.41,0,0,1,.65-.67,2.09,2.09,0,0,1,.87-.18,6.71,6.71,0,0,1,1.56.38A8.71,8.71,0,0,1,12.12,89.51Z"/><rect class="cls-3" x="10.04" y="75.52" width="94.21" height="77.26" rx="6.61"/><path class="cls-17" d="M7.4,103.91a4.73,4.73,0,0,0,2.68-.57h0l.11,0,.16-.08A13.31,13.31,0,0,0,12.27,102a1.42,1.42,0,0,0,.66-1.09,1,1,0,0,0,0-.17,1.89,1.89,0,0,0-1-1.34,1.23,1.23,0,0,0-.29-.13h-.06a.29.29,0,0,0-.1,0l-.1,0a2,2,0,0,0,.26-.25,1.31,1.31,0,0,0,.43-1.15,1.29,1.29,0,0,0-.7-.92,1.43,1.43,0,0,0-.67-.15.8.8,0,0,0-.3,0h-.05a2.41,2.41,0,0,0,.42-.43l.08-.1a2,2,0,0,0-.77-2.75,1.26,1.26,0,0,0-.34-.15h0a1.05,1.05,0,0,0-.3,0l.13-.06a.81.81,0,0,0,.18-.1h0L10,93a1.83,1.83,0,0,0,.13-.16h0v0a1.89,1.89,0,0,0,.39-.79,1.64,1.64,0,0,0,0-.58h0a1.74,1.74,0,0,0,0-.22.93.93,0,0,0-.29-.46l-.09-.06-.11-.05h0c-.09-.06-.19-.1-.28-.15a3.78,3.78,0,0,0-2.93-.26,5.85,5.85,0,0,0-1.6.84h0a3.44,3.44,0,0,0-.53.46,6.31,6.31,0,0,0-1.25,6.26C4.07,99.9,5.09,103.46,7.4,103.91Z"/><path class="cls-5" d="M6.58,103.87a4.79,4.79,0,0,0,2.71-.54h0l0,0,.11,0,.17-.08A12.56,12.56,0,0,0,11.5,102a1.36,1.36,0,0,0,.65-1.08c0-.06,0-.11,0-.16a2,2,0,0,0-1-1.36,1.51,1.51,0,0,0-.3-.13h-.06l-.1,0-.11,0a1.51,1.51,0,0,0,.26-.24,1.3,1.3,0,0,0,.43-1.16,1.35,1.35,0,0,0-.73-.92,1.48,1.48,0,0,0-.68-.16,1,1,0,0,0-.3,0,0,0,0,0,0,0,0H9.46l0,0a2.38,2.38,0,0,0,.42-.42.46.46,0,0,0,.07-.1,2,2,0,0,0-.81-2.77,1.32,1.32,0,0,0-.35-.15h0a1.65,1.65,0,0,0-.3,0l.13-.05a.59.59,0,0,0,.17-.1h0a1.59,1.59,0,0,0,.24-.2.7.7,0,0,0,.14-.16h0A1.78,1.78,0,0,0,9.64,92a1.6,1.6,0,0,0,0-.57h0a1.74,1.74,0,0,0-.05-.22,1,1,0,0,0-.3-.47l-.09,0a.19.19,0,0,0-.11,0l0,0h0l-.29-.15a3.87,3.87,0,0,0-3-.3,5.64,5.64,0,0,0-1.6.82h0a3,3,0,0,0-.53.47A6.18,6.18,0,0,0,2.5,97.65C3.15,99.81,4.23,103.39,6.58,103.87Z"/><path class="cls-6" d="M5.08,94.16a5.18,5.18,0,0,1,2.2-.74s1.38-.28,1.38-.29,0,0,.06,0L9,93l.24-.2h0A1.78,1.78,0,0,0,9.64,92a1.6,1.6,0,0,0,0-.57h0a1.74,1.74,0,0,0-.05-.22,1.21,1.21,0,0,1-.18.72,2.56,2.56,0,0,1-.92.87,5.94,5.94,0,0,1-1.31.37A5.18,5.18,0,0,0,5.08,94.16Z"/><path class="cls-6" d="M9.32,93.34c-.61-.33-.69,0-.8,0a4.16,4.16,0,0,1,.7.35c.21.21.49.29.65.55a1.76,1.76,0,0,1,.27,1.18,1.34,1.34,0,0,1-.39.73,1.43,1.43,0,0,1-.8.36c-.33.08-.65.16-1,.27a7.67,7.67,0,0,0-1.34.59,7,7,0,0,0-1.19.83,7,7,0,0,1,1.26-.69A6.52,6.52,0,0,1,8.07,97a10.13,10.13,0,0,1,1.55-.31l0,0a3.49,3.49,0,0,0,.43-.43A2,2,0,0,0,9.32,93.34Z"/><path class="cls-6" d="M10.83,99a2,2,0,0,1-.27.24l.11,0,.06,0a0,0,0,0,1,0,0,0,0,0,0,0,0,0h.06a2.63,2.63,0,0,1,.3.14,2,2,0,0,1,1,1.36.88.88,0,0,0,0,.16A1.34,1.34,0,0,1,11.5,102a12.55,12.55,0,0,1-1.9,1.16l-.16.08-.12.06,0,0a4.25,4.25,0,0,0,1.91-1.77,1.65,1.65,0,0,0,.22-1.18,1.28,1.28,0,0,0-1-.75,2.26,2.26,0,0,0-1.09.11A7,7,0,0,0,7,100.84a7.19,7.19,0,0,1,2.35-1.41,3,3,0,0,1,.74-.18c.45-.43.92-.84.84-1.27,0-.94-1.11-1.16-1.37-1.2a1,1,0,0,1,.3,0,1.48,1.48,0,0,1,.68.16A1.24,1.24,0,0,1,10.83,99Z"/><path class="cls-17" d="M93,82.8h0a1.8,1.8,0,0,1-.57-.25,2.08,2.08,0,0,1-.78-.92,3,3,0,0,1-.1-.32s0,0,0,0a1.55,1.55,0,0,1,0-.21v-.15a1.12,1.12,0,0,1-.16.28h0a2,2,0,0,1-.29.29,2.16,2.16,0,0,1-3.12-.21l-.08-.12h0a3.48,3.48,0,0,1-.26-.58v0s0,.06,0,.08h0a1.08,1.08,0,0,1-.07.31,1.69,1.69,0,0,1-.43.63,1.48,1.48,0,0,1-1.22.38,1.38,1.38,0,0,1-1-.86,1.92,1.92,0,0,1-.14-.36l-.07.11-.06.09,0,0h0a1.52,1.52,0,0,1-.25.26,2.22,2.22,0,0,1-1.77.49l-.17,0a1.43,1.43,0,0,1-.85-1.06A13.07,13.07,0,0,1,81,78.3a1.37,1.37,0,0,1,0-.19A.57.57,0,0,1,81,78v0a5.05,5.05,0,0,1,.5-2.93c1.39-2.19,5.43-1.93,7.89-1.78a6.64,6.64,0,0,1,5.88,3.54,3.49,3.49,0,0,1,.27.71h0a6.65,6.65,0,0,1,.21,1.93,4.22,4.22,0,0,1-1.45,2.88l-.26.23h0l0,0a.41.41,0,0,1-.1.09.35.35,0,0,1-.09.07A1.18,1.18,0,0,1,93,82.8Z"/><path class="cls-5" d="M93.27,82.17h0a2,2,0,0,1-.57-.25,2.15,2.15,0,0,1-.76-.92c0-.11-.08-.22-.11-.33v0a.76.76,0,0,1,0-.21.66.66,0,0,1,0-.14,1.55,1.55,0,0,1-.15.28h0a1.52,1.52,0,0,1-.28.29,2.12,2.12,0,0,1-3.09-.22,1,1,0,0,1-.08-.11h0a3.15,3.15,0,0,1-.26-.58v0s0,.06,0,.08h0a1.08,1.08,0,0,1-.07.31,1.55,1.55,0,0,1-.42.63,1.46,1.46,0,0,1-1.2.38,1.4,1.4,0,0,1-1-.86,3,3,0,0,1-.14-.36.61.61,0,0,1-.07.1.27.27,0,0,1-.06.1l0,0h0a3,3,0,0,1-.25.25,2.17,2.17,0,0,1-1.75.49l-.17,0A1.44,1.44,0,0,1,81.87,80a12.87,12.87,0,0,1-.45-2.35c0-.06,0-.13,0-.19a.48.48,0,0,1,0-.12v0a5.12,5.12,0,0,1,.49-2.93c1.37-2.19,5.37-1.92,7.8-1.76a6.65,6.65,0,0,1,5.84,3.55,4,4,0,0,1,.26.71h0A6.29,6.29,0,0,1,96,78.77a4.19,4.19,0,0,1-1.43,2.88,2.73,2.73,0,0,1-.25.23,0,0,0,0,0,0,0l0,0a.76.76,0,0,1-.09.09l-.1.07A1.15,1.15,0,0,1,93.27,82.17Z"/><path class="cls-6" d="M94.09,82.07l.1-.07.09-.09,0,0a1.29,1.29,0,0,1-1.6-.37,2.63,2.63,0,0,1-.51-1.23,6.11,6.11,0,0,1,.12-1.41,5.46,5.46,0,0,0-.24-2.48A5.25,5.25,0,0,1,92,78.82l-.22,1.47s0,0,0,.06a1.73,1.73,0,0,0,0,.32c0,.11.07.22.11.33a2,2,0,0,0,1.34,1.17A1.15,1.15,0,0,0,94.09,82.07Z"/><path class="cls-6" d="M91.34,80.86a1.52,1.52,0,0,0,.28-.29c-.07.1-.32.17-.43.22a4.21,4.21,0,0,1-.89.29A1.82,1.82,0,0,1,89,80.91a1.41,1.41,0,0,1-.58-.65,1.6,1.6,0,0,1-.06-.92,9.32,9.32,0,0,0,.1-1,8.68,8.68,0,0,0-.09-1.53A7.48,7.48,0,0,0,88,75.28a7.55,7.55,0,0,1,.22,1.49,7.47,7.47,0,0,1-.08,1.5,11.31,11.31,0,0,1-.27,1.63v0a3.6,3.6,0,0,0,.26.59A2.11,2.11,0,0,0,91.34,80.86Z"/><path class="cls-6" d="M85.18,80.45a3,3,0,0,1-.14-.36.61.61,0,0,1-.07.1l0,0s0,0,0,0v0a.11.11,0,0,0,0,0,3,3,0,0,1-.25.25,2.17,2.17,0,0,1-1.75.49l-.17,0A1.44,1.44,0,0,1,81.87,80a12.87,12.87,0,0,1-.45-2.35c0-.06,0-.13,0-.19a.76.76,0,0,0,0-.15v0a4.62,4.62,0,0,0,1.06,2.6,1.79,1.79,0,0,0,1.1.66,1.33,1.33,0,0,0,1.11-.69A2.2,2.2,0,0,0,85,78.76a7.59,7.59,0,0,0-.21-2.88,7.54,7.54,0,0,1,.53,2.9,3.7,3.7,0,0,1-.09.81c.26.62.49,1.24,1,1.33.94.36,1.58-.68,1.71-.93a1.08,1.08,0,0,1-.07.31,1.55,1.55,0,0,1-.42.63A1.33,1.33,0,0,1,85.18,80.45Z"/><g class="cls-18"><path class="cls-17" d="M58.66,87.23a20.14,20.14,0,0,1,7,.66,18.43,18.43,0,0,1,6.12,2.91,14.16,14.16,0,0,1,4.16,4.8A11.15,11.15,0,0,1,77.08,102a16.06,16.06,0,0,1-1.44,5.11A20.74,20.74,0,0,1,73,111.24a28.9,28.9,0,0,1-3.32,3.4c-1.17,1-2.3,2-3.38,3a32.38,32.38,0,0,0-2.95,3,11,11,0,0,0-2,3.37,4.69,4.69,0,0,1-.86,1.57,1.9,1.9,0,0,1-1.35.75l-8.8.71a1.41,1.41,0,0,1-1.28-.52,2,2,0,0,1-.41-1.48,12.75,12.75,0,0,1,1.5-4.79,22.49,22.49,0,0,1,2.83-4,37.09,37.09,0,0,1,3.46-3.41c1.23-1,2.38-2.06,3.46-3A21.39,21.39,0,0,0,62.67,107,5.85,5.85,0,0,0,64,104a3.73,3.73,0,0,0-1.19-3.5q-1.44-1.19-4.76-.92A8.83,8.83,0,0,0,53.25,101a9.58,9.58,0,0,0-2.3,2.52c-.53.89-1,1.7-1.36,2.45a2.19,2.19,0,0,1-1.93,1.22l-7.7-1a1.19,1.19,0,0,1-1.05-.39,1.54,1.54,0,0,1-.31-1.24c.18-1.86-.37-2.11.55-4.21a21.26,21.26,0,0,1,4-5.95,23,23,0,0,1,6.39-4.76A24.31,24.31,0,0,1,58.66,87.23Zm-.37,52.07a2.59,2.59,0,0,1-.76,1.57,2.37,2.37,0,0,1-1.53.75l-9.72.8a1.67,1.67,0,0,1-1.4-.52,1.82,1.82,0,0,1-.47-1.47l1.05-8.08a2.52,2.52,0,0,1,.77-1.57,2.39,2.39,0,0,1,1.53-.76l9.71-.79a1.64,1.64,0,0,1,1.4.52,1.81,1.81,0,0,1,.47,1.47Z"/></g><path class="cls-8" d="M57.19,83.9a21.68,21.68,0,0,1,7.47.69,19.78,19.78,0,0,1,6.53,3.08,15.05,15.05,0,0,1,4.46,5.11,11.77,11.77,0,0,1,1.21,6.83A17,17,0,0,1,75.33,105a22,22,0,0,1-2.83,4.35A31.1,31.1,0,0,1,69,113c-1.26,1.08-2.46,2.15-3.62,3.19a34.13,34.13,0,0,0-3.15,3.24A11.84,11.84,0,0,0,60.07,123a5.1,5.1,0,0,1-.91,1.67,2.1,2.1,0,0,1-1.45.79l-9.41.77a1.51,1.51,0,0,1-1.36-.56,2.07,2.07,0,0,1-.44-1.56A13.22,13.22,0,0,1,48.1,119a24,24,0,0,1,3-4.24,38.26,38.26,0,0,1,3.7-3.62q2-1.68,3.7-3.21a21.79,21.79,0,0,0,2.93-3,6.22,6.22,0,0,0,1.37-3.22A3.94,3.94,0,0,0,61.56,98c-1-.84-2.73-1.17-5.09-1a9.44,9.44,0,0,0-5.07,1.54,10.33,10.33,0,0,0-2.46,2.68c-.57,1-1.06,1.81-1.46,2.6a2.36,2.36,0,0,1-2.06,1.31l-9.41.76a1.29,1.29,0,0,1-1.12-.41,1.63,1.63,0,0,1-.34-1.32,21.24,21.24,0,0,1,1.77-6.32,22.79,22.79,0,0,1,4.22-6.31,24.5,24.5,0,0,1,6.85-5.06A26.11,26.11,0,0,1,57.19,83.9Zm1,57.33a2.74,2.74,0,0,1-.76,1.66,2.3,2.3,0,0,1-1.52.79l-9.72.79a1.58,1.58,0,0,1-1.4-.55,2,2,0,0,1-.48-1.56l1-8.57a2.71,2.71,0,0,1,.76-1.66,2.31,2.31,0,0,1,1.52-.8l9.72-.79a1.59,1.59,0,0,1,1.4.56,2,2,0,0,1,.48,1.56Z"/><g class="cls-18"><path class="cls-17" d="M85.22,117.83a10.37,10.37,0,0,1,3,2,9.33,9.33,0,0,1,2.08,2.79A7.19,7.19,0,0,1,91,125.8a5.73,5.73,0,0,1-1,3.2,8.11,8.11,0,0,1-1.89,2,10.43,10.43,0,0,1-2.18,1.23,16.1,16.1,0,0,1-2.33.74c-.78.18-1.53.36-2.26.55a18.08,18.08,0,0,0-2.08.67,5.94,5.94,0,0,0-1.71,1.06,2.54,2.54,0,0,1-.76.51,1.06,1.06,0,0,1-.8,0l-4.17-1.8a.72.72,0,0,1-.45-.55,1,1,0,0,1,.17-.77,6.46,6.46,0,0,1,1.84-1.81,11.29,11.29,0,0,1,2.25-1.13A18.2,18.2,0,0,1,78,129l2.3-.54a11.31,11.31,0,0,0,1.94-.64,3.11,3.11,0,0,0,1.31-1.07,1.9,1.9,0,0,0,.3-1.88,3.35,3.35,0,0,0-1.94-1.57,4.52,4.52,0,0,0-2.5-.48,4.85,4.85,0,0,0-1.66.59q-.68.41-1.2.78a1.13,1.13,0,0,1-1.18.09l-3.25-2.32a.63.63,0,0,1-.38-.43.77.77,0,0,1,.16-.64c.53-.8.34-1,1.27-1.78a11,11,0,0,1,3.22-1.75,11.67,11.67,0,0,1,4-.61A12.41,12.41,0,0,1,85.22,117.83ZM72.49,141.39a1.32,1.32,0,0,1-.73.52,1.23,1.23,0,0,1-.87,0l-4.61-2a.89.89,0,0,1-.51-.58,1,1,0,0,1,.14-.78l2.43-3.41a1.29,1.29,0,0,1,.73-.53,1.24,1.24,0,0,1,.87,0l4.6,2a.85.85,0,0,1,.52.57.92.92,0,0,1-.15.78Z"/></g><path class="cls-8" d="M85.35,116a11.16,11.16,0,0,1,3.23,2.12,10.12,10.12,0,0,1,2.22,3,7.63,7.63,0,0,1,.79,3.39,6,6,0,0,1-1.09,3.39,8.8,8.8,0,0,1-2,2.1,11.8,11.8,0,0,1-2.33,1.29,16.52,16.52,0,0,1-2.48.78c-.84.19-1.64.38-2.42.58a18.42,18.42,0,0,0-2.21.71,6.17,6.17,0,0,0-1.82,1.11,2.54,2.54,0,0,1-.82.54,1,1,0,0,1-.85,0L71.11,133a.78.78,0,0,1-.49-.58,1.08,1.08,0,0,1,.18-.82,6.88,6.88,0,0,1,2-1.92,11.88,11.88,0,0,1,2.39-1.2,19.66,19.66,0,0,1,2.56-.75l2.45-.56a11.69,11.69,0,0,0,2.07-.68,3.24,3.24,0,0,0,1.4-1.13,2.05,2.05,0,0,0,.32-2,3.73,3.73,0,0,0-2.08-1.67,4.94,4.94,0,0,0-2.68-.52,5.37,5.37,0,0,0-1.76.63c-.49.29-.92.56-1.29.82a1.19,1.19,0,0,1-1.25.1l-4.46-1.92a.69.69,0,0,1-.41-.46.83.83,0,0,1,.17-.68,10.81,10.81,0,0,1,2.33-2.44A11.45,11.45,0,0,1,76,115.41a12.68,12.68,0,0,1,4.32-.65A13.6,13.6,0,0,1,85.35,116ZM72,142.23a1.37,1.37,0,0,1-.74.57,1.16,1.16,0,0,1-.88,0l-4.61-2a.84.84,0,0,1-.5-.6,1,1,0,0,1,.16-.82l2.53-3.65a1.37,1.37,0,0,1,.74-.57,1.19,1.19,0,0,1,.89,0l4.6,2a.87.87,0,0,1,.5.59,1,1,0,0,1-.16.83Z"/><g class="cls-18"><path class="cls-17" d="M29.52,115A9.57,9.57,0,0,1,32.65,114a8.67,8.67,0,0,1,3.18.08,6.72,6.72,0,0,1,2.71,1.28,5.17,5.17,0,0,1,1.71,2.55,7.3,7.3,0,0,1,.36,2.46,9.6,9.6,0,0,1-.36,2.27,13,13,0,0,1-.77,2.09c-.31.66-.61,1.31-.88,1.94a14.67,14.67,0,0,0-.69,1.87,5.24,5.24,0,0,0-.21,1.82,2.34,2.34,0,0,1-.06.84.91.91,0,0,1-.44.58l-3.65,2a.66.66,0,0,1-.65,0,.92.92,0,0,1-.45-.56,5.74,5.74,0,0,1-.27-2.34,10.9,10.9,0,0,1,.45-2.26,18.7,18.7,0,0,1,.84-2.12c.33-.68.63-1.34.91-1.95a10.76,10.76,0,0,0,.63-1.76,2.71,2.71,0,0,0,0-1.55A1.75,1.75,0,0,0,33.8,120a3.1,3.1,0,0,0-2.22.51A4.21,4.21,0,0,0,29.82,122a4.47,4.47,0,0,0-.51,1.52c-.06.49-.1.92-.12,1.32a1,1,0,0,1-.59.89l-3.51,1a.54.54,0,0,1-.52,0,.7.7,0,0,1-.37-.47c-.28-.84-.56-.84-.57-1.92a10.07,10.07,0,0,1,.57-3.31A10.6,10.6,0,0,1,26,117.82,11.43,11.43,0,0,1,29.52,115Zm9.76,22.44a1.22,1.22,0,0,1,0,.82,1.11,1.11,0,0,1-.52.62l-4,2.19a.76.76,0,0,1-.7,0,.82.82,0,0,1-.48-.54l-1.09-3.67A1.27,1.27,0,0,1,33,135.5l4-2.19a.79.79,0,0,1,.7,0,.86.86,0,0,1,.48.54Z"/></g><path class="cls-8" d="M28.25,113.89a10.08,10.08,0,0,1,3.34-1.13,9.42,9.42,0,0,1,3.4.08,7,7,0,0,1,2.88,1.35,5.44,5.44,0,0,1,1.83,2.7,8,8,0,0,1,.37,2.62,9.71,9.71,0,0,1-.39,2.41,14.82,14.82,0,0,1-.83,2.23c-.34.7-.65,1.39-1,2.06a16.66,16.66,0,0,0-.74,2,5.45,5.45,0,0,0-.22,1.94,2.39,2.39,0,0,1-.08.89,1,1,0,0,1-.47.62l-3.89,2.12a.73.73,0,0,1-.7,0,1,1,0,0,1-.48-.59,6.12,6.12,0,0,1-.28-2.49,10.88,10.88,0,0,1,.49-2.4,17.73,17.73,0,0,1,.9-2.26c.35-.73.68-1.42,1-2.08a11.28,11.28,0,0,0,.68-1.87,2.88,2.88,0,0,0,0-1.65,1.81,1.81,0,0,0-1.25-1.35,3.28,3.28,0,0,0-2.37.55,4.43,4.43,0,0,0-1.89,1.63A4.94,4.94,0,0,0,28,122.9c-.06.51-.1,1-.13,1.39a1.1,1.1,0,0,1-.64,1l-3.89,2.12a.62.62,0,0,1-.56,0,.75.75,0,0,1-.4-.5,9.8,9.8,0,0,1-.44-3.05,10.57,10.57,0,0,1,.61-3.52,11.42,11.42,0,0,1,2-3.47A11.94,11.94,0,0,1,28.25,113.89Zm11.33,24.45a1.27,1.27,0,0,1,0,.86,1.11,1.11,0,0,1-.5.63L35,142a.75.75,0,0,1-.71,0,.94.94,0,0,1-.5-.58l-1.2-3.87a1.33,1.33,0,0,1,0-.86,1,1,0,0,1,.51-.63l4-2.19a.75.75,0,0,1,.71,0,.91.91,0,0,1,.5.58Z"/></g></g></g></svg>