<svg width="65" height="65" viewBox="0 0 65 65" fill="none" xmlns="http://www.w3.org/2000/svg">
<path d="M47.2083 2H17.0694C8.74682 2 2 8.74682 2 17.0694V47.2083C2 55.531 8.74682 62.2778 17.0694 62.2778H47.2083C55.531 62.2778 62.2778 55.531 62.2778 47.2083V17.0694C62.2778 8.74682 55.531 2 47.2083 2Z" stroke="#F6F6F6" stroke-width="4" stroke-linecap="round" stroke-linejoin="round"/>
<path d="M44.1945 30.2394C44.5664 32.7477 44.138 35.3094 42.9701 37.5601C41.8023 39.8109 39.9544 41.6361 37.6894 42.7762C35.4244 43.9162 32.8576 44.313 30.3541 43.9102C27.8506 43.5073 25.5378 42.3253 23.7448 40.5323C21.9518 38.7393 20.7697 36.4265 20.3669 33.923C19.964 31.4195 20.3609 28.8527 21.5009 26.5877C22.6409 24.3227 24.4661 22.4748 26.7169 21.3069C28.9677 20.139 31.5294 19.7106 34.0377 20.0826C36.5963 20.462 38.965 21.6542 40.7939 23.4832C42.6229 25.3121 43.8151 27.6808 44.1945 30.2394Z" stroke="#F6F6F6" stroke-width="4" stroke-linecap="round" stroke-linejoin="round"/>
<path d="M48.7153 15.5625H48.7454" stroke="#F6F6F6" stroke-width="4" stroke-linecap="round" stroke-linejoin="round"/>
</svg>
