<svg width="19" height="24" viewBox="0 0 19 24" fill="none" xmlns="http://www.w3.org/2000/svg">
<path d="M9.96591 19.2273C8.94318 19.2273 8.0625 18.9858 7.32386 18.5028C6.58523 18.0199 6.01705 17.3546 5.61932 16.5071C5.22159 15.6596 5.02273 14.6913 5.02273 13.6023C5.02273 12.4943 5.22633 11.5166 5.63352 10.669C6.04545 9.81676 6.61837 9.15152 7.35227 8.6733C8.09091 8.19034 8.95265 7.94886 9.9375 7.94886C10.7045 7.94886 11.3958 8.09091 12.0114 8.375C12.6269 8.65909 13.1312 9.05682 13.5241 9.56818C13.9171 10.0795 14.161 10.6761 14.2557 11.358H12.5795C12.4517 10.8608 12.1676 10.4205 11.7273 10.0369C11.2917 9.64867 10.7045 9.45455 9.96591 9.45455C9.3125 9.45455 8.73958 9.625 8.24716 9.96591C7.75947 10.3021 7.37831 10.7779 7.10369 11.3935C6.83381 12.0043 6.69886 12.7216 6.69886 13.5455C6.69886 14.3883 6.83144 15.1222 7.09659 15.7472C7.36648 16.3722 7.74527 16.8575 8.23295 17.2031C8.72538 17.5488 9.30303 17.7216 9.96591 17.7216C10.4015 17.7216 10.7969 17.6458 11.152 17.4943C11.5071 17.3428 11.8078 17.125 12.054 16.8409C12.3002 16.5568 12.4754 16.2159 12.5795 15.8182H14.2557C14.161 16.4621 13.9266 17.0421 13.5526 17.5582C13.1832 18.0696 12.6932 18.4768 12.0824 18.7798C11.4763 19.0781 10.7708 19.2273 9.96591 19.2273Z" fill="#F6F6F6"/>
<circle cx="9.5" cy="13.5" r="9" stroke="#F6F6F6"/>
</svg>
