<svg width="797" height="140" viewBox="0 0 797 140" fill="none" xmlns="http://www.w3.org/2000/svg">
<path d="M9.42217 21.8806C6.86449 21.8971 4.66983 21.204 2.8052 19.8014C0.957069 18.3988 0.0165012 16.7487 0.0165012 14.8346L0 8.31662C0 6.40248 0.907565 4.73586 2.7557 3.33326C4.60383 1.91416 6.79849 1.20461 9.35617 1.20461L82.6874 0.973594C85.3606 0.957093 87.5718 1.66664 89.3044 3.05274C91.037 4.45534 91.8951 6.10546 91.9116 8.0196L91.9281 14.5376C91.9281 16.4517 91.0865 18.1183 89.3539 19.5209C87.6378 20.9235 85.4431 21.6331 82.7534 21.6496L9.42217 21.8806Z" fill="#F6F6F6"/>
<path d="M74.6018 44.8502C77.1594 44.8502 79.3211 45.5433 81.1197 46.9294C82.9019 48.332 83.8094 49.9821 83.8094 51.8962L83.8259 58.4142C83.8259 60.5923 82.9514 62.3085 81.1692 63.5955C79.3871 64.8826 77.2255 65.5262 74.6678 65.5262L25.6593 65.6747L25.8243 116.795L83.0669 116.614C85.7401 116.597 87.9512 117.307 89.6838 118.693C91.4165 120.096 92.2745 121.746 92.291 123.66L92.3075 130.178C92.3075 132.092 91.466 133.759 89.7334 135.161C88.0172 136.58 85.8061 137.273 83.1329 137.29L9.78513 137.521C7.22745 137.537 5.03279 136.844 3.16815 135.442C1.30352 134.039 0.379455 132.389 0.379455 130.475L0.131937 52.1602C0.131937 50.2461 1.0395 48.5795 2.88763 47.1769C4.73577 45.7743 6.93042 45.0647 9.48811 45.0482L74.6018 44.8502Z" fill="#F6F6F6"/>
<path d="M104.733 98.0995C102.901 98.0995 101.4 97.6705 100.212 96.796C99.0401 95.9214 98.4461 94.7498 98.4461 93.2647V89.4694C98.4461 88.2483 99.0401 87.1428 100.212 86.1362C101.383 85.1296 102.901 84.6346 104.733 84.6346H140.079C141.828 84.6346 143.313 85.1461 144.534 86.1362C145.755 87.1428 146.366 88.2483 146.366 89.4694V93.2647C146.366 94.7498 145.755 95.9214 144.534 96.796C143.313 97.6705 141.828 98.0995 140.079 98.0995H104.733Z" fill="#F6F6F6"/>
<path d="M201.05 56.4836C200.621 57.7872 199.582 58.7607 197.981 59.3713C196.364 59.9818 194.78 59.9818 193.196 59.3713H193.328C191.76 58.9422 190.292 58.5792 188.939 58.3317C187.585 58.0677 186.298 57.9357 185.077 57.9357C182.371 57.9357 179.846 58.4967 177.487 59.6353C175.474 60.6749 173.84 62.1435 172.586 64.0246C171.315 65.9057 170.738 67.9684 170.82 70.2456C170.82 72.3412 171.315 74.0573 172.322 75.4104C173.328 76.7635 174.632 77.9021 176.249 78.8097C177.866 79.7172 179.665 80.4928 181.678 81.1033C183.691 81.7139 185.688 82.2419 187.701 82.6709C187.882 82.6709 188.064 82.7204 188.295 82.803C188.509 82.8855 188.708 82.935 188.889 82.935C189.236 82.935 189.681 82.9845 190.193 83.067C190.721 83.1495 191.1 83.199 191.364 83.199C193.806 83.727 196.298 84.3046 198.823 84.9646C201.347 85.6247 203.823 86.4497 206.215 87.4563C208.608 88.4629 210.885 89.7334 213.014 91.2516C215.142 92.7862 217.007 94.7168 218.575 97.0765C219.878 99.0896 220.934 101.268 221.71 103.611C222.502 105.971 222.881 108.281 222.881 110.541C222.881 113.066 222.469 115.69 221.644 118.396C220.819 121.102 219.614 123.627 218.047 125.987H218.179C215.39 130.178 211.479 133.363 206.463 135.541C201.446 137.719 196.232 138.808 190.82 138.808C187.057 138.808 183.889 138.544 181.265 138.016C171.926 135.92 163.164 131.333 154.963 124.27L155.359 124.402C154.138 123.445 153.411 122.323 153.197 121.069C152.982 119.815 153.345 118.644 154.303 117.604L157.306 114.073C158.263 112.934 159.682 112.357 161.563 112.307C163.444 112.258 165.127 112.769 166.596 113.809C170.441 117.472 174.533 120.244 178.906 122.125C183.262 124.006 187.503 124.947 191.595 124.947C195.522 124.947 198.839 123.775 201.545 121.416C204.252 119.056 205.605 115.442 205.605 110.558C205.605 108.198 204.945 106.268 203.641 104.733C202.337 103.215 200.638 101.911 198.542 100.872C196.447 99.8157 194.087 98.9906 191.48 98.3801C188.856 97.7695 186.249 97.2085 183.625 96.6804C182.569 96.4164 181.331 96.1194 179.896 95.7729C178.46 95.4264 176.959 95.0303 175.375 94.6013C173.807 94.1723 172.239 93.6442 170.672 93.0337C169.104 92.4231 167.619 91.7301 166.216 90.938C162.372 88.4959 159.319 85.4926 157.058 81.9119C154.781 78.3311 153.659 74.4534 153.659 70.2621C153.659 67.9024 154.055 65.5427 154.831 63.1995C155.623 60.8399 156.745 58.5792 158.23 56.4011C159.533 54.5694 161.2 52.8698 163.197 51.3022C165.21 49.7346 167.421 48.299 169.88 46.9789C172.157 45.8403 174.5 45.0647 176.942 44.6192C179.384 44.1902 181.909 43.9592 184.533 43.9592C187.585 43.9592 190.292 44.2232 192.651 44.7512H192.255L194.351 45.0152L198.542 46.0713C200.192 46.6819 201.397 47.5564 202.139 48.695C202.882 49.8336 203.031 51.0547 202.601 52.3583L201.05 56.4836Z" fill="#F6F6F6"/>
<path d="M303.011 44.1737C304.925 44.1737 306.476 44.6522 307.664 45.6093C308.836 46.5664 309.43 47.7049 309.43 49.0085V102.934C309.43 107.736 308.44 112.357 306.493 116.812C304.529 121.267 301.807 125.326 298.308 128.99C294.728 132.571 290.635 135.227 285.998 136.976C281.378 138.725 276.395 139.6 271.081 139.6C265.85 139.6 260.917 138.725 256.296 136.976C251.676 135.227 247.617 132.571 244.118 128.99C240.455 125.326 237.683 121.267 235.802 116.812C233.921 112.357 232.997 107.736 232.997 102.934V49.025C232.997 47.7214 233.591 46.5829 234.762 45.6258C235.934 44.6687 237.402 44.1902 239.152 44.1902H243.871C245.703 44.1902 247.204 44.6687 248.392 45.6258C249.564 46.5829 250.158 47.7214 250.158 49.025V102.951C250.158 106.004 250.702 108.908 251.791 111.647C252.881 114.403 254.382 116.795 256.313 118.842C258.227 120.888 260.455 122.505 262.996 123.676C265.52 124.848 268.227 125.442 271.114 125.442C273.986 125.442 276.725 124.848 279.299 123.676C281.873 122.505 284.101 120.888 285.982 118.842C287.863 116.795 289.365 114.386 290.503 111.647C291.642 108.908 292.203 106.004 292.203 102.951V49.025C292.203 47.7214 292.797 46.5829 293.968 45.6258C295.14 44.6687 296.658 44.1902 298.49 44.1902H303.011V44.1737Z" fill="#F6F6F6"/>
<path d="M411.771 132.521C411.771 133.825 411.176 134.963 410.005 135.92C408.833 136.877 407.332 137.356 405.484 137.356H400.896C398.982 137.356 397.431 136.877 396.243 135.92C395.071 134.963 394.477 133.825 394.477 132.521V75.4599L373.933 103.594C372.448 105.344 370.633 106.218 368.504 106.218C366.359 106.218 364.511 105.426 362.944 103.858L342.532 75.5919V132.521C342.532 133.825 341.888 134.963 340.634 135.92C339.363 136.877 337.862 137.356 336.113 137.356H331.393C329.644 137.356 328.159 136.877 326.938 135.92C325.717 134.963 325.106 133.825 325.106 132.521V49.025C325.106 47.7214 325.717 46.5828 326.938 45.6258C328.159 44.6687 329.644 44.1902 331.393 44.1902H336.113C336.987 44.1902 337.944 44.4047 338.984 44.8502C340.04 45.2957 340.766 45.7248 341.211 46.1538L368.438 83.5785L395.797 46.1538C396.226 45.7248 397.002 45.2792 398.091 44.8502C399.18 44.4212 400.121 44.1902 400.913 44.1902H405.5C407.332 44.1902 408.833 44.6687 410.021 45.6258C411.193 46.5828 411.787 47.7214 411.787 49.025V132.521H411.771Z" fill="#F6F6F6"/>
<path d="M515.959 132.521C515.959 133.825 515.365 134.963 514.193 135.92C513.022 136.877 511.52 137.356 509.672 137.356H505.085C503.171 137.356 501.619 136.877 500.431 135.92C499.26 134.963 498.666 133.825 498.666 132.521V75.4599L478.122 103.594C476.637 105.344 474.822 106.218 472.693 106.218C470.564 106.218 468.7 105.426 467.132 103.858L446.72 75.5919V132.521C446.72 133.825 446.093 134.963 444.822 135.92C443.552 136.877 442.05 137.356 440.301 137.356H435.582C433.833 137.356 432.347 136.877 431.126 135.92C429.905 134.963 429.295 133.825 429.295 132.521V49.025C429.295 47.7214 429.905 46.5829 431.126 45.6258C432.347 44.6687 433.833 44.1902 435.582 44.1902H440.301C441.176 44.1902 442.133 44.4047 443.189 44.8502C444.245 45.2958 444.971 45.7248 445.416 46.1538L472.643 83.5785L499.986 46.1373C500.415 45.7083 501.19 45.2628 502.28 44.8337C503.369 44.4047 504.309 44.1737 505.101 44.1737H509.689C511.52 44.1737 513.022 44.6522 514.21 45.6093C515.381 46.5664 515.976 47.7049 515.976 49.0085V132.521H515.959Z" fill="#F6F6F6"/>
<path d="M557.707 132.521C557.707 133.825 557.113 134.963 555.941 135.92C554.77 136.877 553.252 137.356 551.42 137.356H546.701C544.952 137.356 543.466 136.877 542.245 135.92C541.024 134.963 540.414 133.825 540.414 132.521V49.025C540.414 47.7214 541.024 46.5828 542.245 45.6258C543.466 44.6687 544.952 44.1902 546.701 44.1902H551.42C553.252 44.1902 554.753 44.6687 555.941 45.6258C557.113 46.5828 557.707 47.7214 557.707 49.025V132.521Z" fill="#F6F6F6"/>
<path d="M637.672 53.4638C637.672 54.7674 637.061 55.906 635.84 56.8631C634.619 57.8201 633.134 58.2987 631.385 58.2987H613.976V132.504C613.976 133.808 613.332 134.947 612.078 135.904C610.808 136.861 609.306 137.339 607.557 137.339H602.838C601.088 137.339 599.603 136.861 598.382 135.904C597.161 134.947 596.551 133.808 596.551 132.504V58.3152H579.01C577.261 58.3152 575.776 57.8366 574.555 56.8796C573.334 55.9225 572.723 54.7839 572.723 53.4803V49.025C572.723 47.7214 573.334 46.5828 574.555 45.6258C575.776 44.6687 577.261 44.1902 579.01 44.1902H631.368C633.117 44.1902 634.602 44.6687 635.824 45.6258C637.045 46.5828 637.655 47.7214 637.655 49.025V53.4638H637.672Z" fill="#F6F6F6"/>
<path d="M659.536 65.2457C659.536 66.5493 658.942 67.6878 657.77 68.6449C656.599 69.602 655.13 70.0805 653.381 70.0805H648.662C646.912 70.0805 645.427 69.602 644.206 68.6449C642.985 67.6878 642.375 66.5493 642.375 65.2457V49.025C642.375 47.7214 642.985 46.5828 644.206 45.6258C645.427 44.6687 646.912 44.1902 648.662 44.1902H653.381C655.13 44.1902 656.582 44.6687 657.77 45.6258C658.942 46.5828 659.536 47.7214 659.536 49.025V65.2457Z" fill="#F6F6F6"/>
<path d="M677.192 52.5562L677.324 52.6883C676.714 51.3847 676.829 50.1801 677.654 49.091C678.479 48.0019 679.502 47.1934 680.723 46.6653C684.387 45.1802 688.578 44.4377 693.281 44.4377C697.39 44.4377 701.152 45.0977 704.6 46.4013C708.049 47.7049 710.986 49.5035 713.429 51.7642C715.871 54.0414 717.768 56.7145 719.122 59.8168C720.475 62.919 721.151 66.2522 721.151 69.833C721.151 74.5523 719.864 79.2882 717.29 84.0405C714.716 88.7928 710.673 94.2712 705.178 100.459H705.31C703.643 102.373 702.01 104.304 700.409 106.218C698.792 108.132 697.158 110.096 695.492 112.109C694.353 113.413 693.413 114.535 692.687 115.442C691.944 116.35 691.218 117.224 690.525 118.066C689.832 118.891 689.089 119.766 688.297 120.69C687.505 121.614 686.548 122.769 685.426 124.155H715.656C717.405 124.155 718.891 124.584 720.112 125.458C721.333 126.333 721.943 127.505 721.943 128.99V132.521C721.943 133.825 721.333 134.963 720.112 135.92C718.891 136.877 717.405 137.356 715.656 137.356H667.885C666.136 137.356 664.684 136.877 663.496 135.92C662.324 134.963 661.73 133.825 661.73 132.521V128.594L693.017 91.8126C695.195 89.2879 697.026 86.9942 698.512 84.9481C699.997 82.9019 701.168 81.0208 702.043 79.3212C702.917 77.6215 703.528 76.0209 703.874 74.5358C704.221 73.0507 704.402 71.5326 704.402 69.9485C704.402 66.2852 703.33 63.315 701.201 61.0544C699.056 58.7937 696.333 57.6551 693.017 57.6551C692.06 57.6551 691.037 57.7871 689.947 58.0511C688.858 58.3152 687.736 58.6617 686.614 59.0907C684.964 59.6188 683.38 59.5858 681.895 59.0247C680.41 58.4637 679.321 57.5231 678.628 56.203L677.192 52.5562Z" fill="#F6F6F6"/>
<path d="M751.414 52.6718L751.546 52.8038C750.936 51.5002 751.051 50.2956 751.876 49.2065C752.701 48.1174 753.724 47.3089 754.946 46.7809C758.609 45.2957 762.8 44.5532 767.503 44.5532C771.612 44.5532 775.374 45.2132 778.823 46.5168C782.272 47.8204 785.209 49.6191 787.651 51.8797C790.093 54.1569 791.991 56.8301 793.344 59.9323C794.697 63.0345 795.373 66.3678 795.373 69.9485C795.373 74.6678 794.086 79.4037 791.512 84.156C788.938 88.9084 784.895 94.3868 779.4 100.575H779.532C777.866 102.489 776.232 104.419 774.631 106.334C773.014 108.248 771.381 110.211 769.714 112.225C768.576 113.528 767.635 114.65 766.909 115.558C766.166 116.465 765.44 117.34 764.747 118.181C764.054 119.007 763.312 119.881 762.52 120.805C761.728 121.729 760.771 122.884 759.648 124.27H789.879C791.628 124.27 793.113 124.699 794.334 125.574C795.555 126.449 796.166 127.62 796.166 129.105V132.636C796.166 133.94 795.555 135.079 794.334 136.036C793.113 136.993 791.628 137.471 789.879 137.471H742.108C740.359 137.471 738.906 136.993 737.718 136.036C736.547 135.079 735.953 133.94 735.953 132.636V128.709L767.239 91.9281C769.417 89.4034 771.249 87.1097 772.734 85.0636C774.219 83.0174 775.391 81.1363 776.265 79.4367C777.14 77.7371 777.75 76.1365 778.097 74.6513C778.443 73.1662 778.625 71.6481 778.625 70.064C778.625 66.4008 777.552 63.4305 775.424 61.1699C773.278 58.9092 770.556 57.7706 767.239 57.7706C766.282 57.7706 765.259 57.9026 764.17 58.1667C763.081 58.4307 761.959 58.7772 760.837 59.2062C759.186 59.7343 757.602 59.7013 756.117 59.1402C754.632 58.5792 753.543 57.6386 752.85 56.3185L751.414 52.6718Z" fill="#F6F6F6"/>
<path d="M787.997 21.7486H161.085C157.075 21.7486 153.84 18.4978 153.84 14.5045V7.24402C153.84 3.23423 157.091 0 161.085 0H788.014C792.024 0 795.258 3.25073 795.258 7.24402V14.488C795.258 18.4978 792.007 21.7486 787.997 21.7486Z" fill="#F6F6F6"/>
<path d="M126.019 21.7486H118.775C114.766 21.7486 111.531 18.4978 111.531 14.5045V7.24402C111.531 3.23423 114.782 0 118.775 0H126.019C130.029 0 133.263 3.25073 133.263 7.24402V14.488C133.28 18.4978 130.029 21.7486 126.019 21.7486Z" fill="#F6F6F6"/>
</svg>
