<svg width="68" height="65" viewBox="0 0 68 65" fill="none" xmlns="http://www.w3.org/2000/svg">
<path d="M46.4152 21.0353C51.4636 21.0353 56.3052 23.0408 59.875 26.6105C63.4448 30.1803 65.4502 35.0219 65.4502 40.0704V62.278H52.7602V40.0704C52.7602 38.3876 52.0917 36.7737 50.9018 35.5838C49.7118 34.3938 48.098 33.7253 46.4152 33.7253C44.7323 33.7253 43.1185 34.3938 41.9285 35.5838C40.7386 36.7737 40.0701 38.3876 40.0701 40.0704V62.278H27.3801V40.0704C27.3801 35.0219 29.3855 30.1803 32.9553 26.6105C36.5251 23.0408 41.3667 21.0353 46.4152 21.0353V21.0353Z" stroke="#F6F6F6" stroke-width="4" stroke-linecap="round" stroke-linejoin="round"/>
<path d="M14.6901 24.2073H2V62.2775H14.6901V24.2073Z" stroke="#F6F6F6" stroke-width="4" stroke-linecap="round" stroke-linejoin="round"/>
<path d="M8.34503 14.6901C11.8493 14.6901 14.6901 11.8493 14.6901 8.34503C14.6901 4.84077 11.8493 2 8.34503 2C4.84077 2 2 4.84077 2 8.34503C2 11.8493 4.84077 14.6901 8.34503 14.6901Z" stroke="#F6F6F6" stroke-width="4" stroke-linecap="round" stroke-linejoin="round"/>
</svg>
