<svg width="75" height="61" viewBox="0 0 75 61" fill="none" xmlns="http://www.w3.org/2000/svg">
<path d="M73 2.03194C69.9095 4.17767 66.4877 5.8188 62.8664 6.89215C60.9227 4.69238 58.3396 3.13325 55.4663 2.42561C52.5931 1.71797 49.5684 1.89597 46.8013 2.93554C44.0341 3.97511 41.6582 5.82609 39.9946 8.23813C38.3311 10.6502 37.4603 13.5069 37.5 16.422V19.5986C31.8285 19.7433 26.2087 18.5052 21.141 15.9945C16.0733 13.4839 11.7151 9.77853 8.45455 5.20855C8.45455 5.20855 -4.45455 33.798 24.5909 46.5044C17.9444 50.9452 10.0267 53.1719 2 52.8576C31.0455 68.7407 66.5455 52.8576 66.5455 16.3267C66.5425 15.4418 66.4561 14.5592 66.2873 13.6901C69.581 10.4928 71.9054 6.45604 73 2.03194V2.03194Z" stroke="#F6F6F6" stroke-width="4" stroke-linecap="round" stroke-linejoin="round"/>
</svg>
